<svg class="svg-icon" style="width: 1em;height: 1em;vertical-align: middle;fill: currentColor;overflow: hidden;" viewBox="0 0 1024 1024" version="1.1" xmlns="http://www.w3.org/2000/svg"><path d="M834.88 339.84c-2.56 64-12.8 273.6-161.6 398.4a502.4 502.4 0 0 1-561.28 44.8s154.56 9.6 235.2-72c-36.8-7.04-137.28-52.8-163.84-128a128 128 0 0 0 87.68 4.8s-130.24-38.08-137.28-170.24c64 25.92 72.64 20.16 79.68 18.88a189.76 189.76 0 0 1-51.84-227.52C227.2 288 370.24 389.12 517.76 387.52c0 0-41.6-215.04 154.56-211.52a190.08 190.08 0 0 1 120.96 53.12 425.92 425.92 0 0 0 99.2-41.28c0 25.92-27.84 61.44-61.12 93.12a263.04 263.04 0 0 0 80.64-20.16c-9.28 37.76-77.12 79.04-77.12 79.04z"  /></svg>